<svg xmlns="http://www.w3.org/2000/svg" viewBox="0 0 100 100">
  <rect width="100" height="100" rx="24" fill="#7d6ff3"/>
  <g transform="translate(50,50) rotate(-45) scale(0.92)">
    <path d="M0 -33 C9 -33 15 -28 15 -21 C15 -14 13 -8 13 -3 C13 3 27 -2 27 15 C27 32 16 42 0 42 C-16 42 -27 32 -27 15 C-27 -2 -13 3 -13 -3 C-13 -8 -15 -14 -15 -21 C-15 -28 -9 -33 0 -33 Z" fill="#ffffff"/>
    <path d="M0 -32 C-1 -40 3 -44 7 -43" stroke="#ffffff" stroke-width="5" fill="none" stroke-linecap="round"/>
  </g>
</svg>
